# xmcd
#
# Track frame offsets: 
#        150
#        14292
#        28065
#        48777
#        68366
#        82788
#        95882
#        109032
#        127541
#        147363
#
# Disc length: 2145 seconds
#
# Revision: 0
# Processed by: cddbd v1.5.2PL0 Copyright (c) Steve Scherf et al.
# Submitted via: ExactAudioCopy v1.3
#
DISCID=70085f0a
DTITLE=Rachel Ries - Ghost Of A Gardener
DYEAR=2014
DGENRE=Labial Soul
TTITLE0=Time
TTITLE1=Words
TTITLE2=Ghost
TTITLE3=Holiest Day
TTITLE4=Where I Stand
TTITLE5=Mercy
TTITLE6=Willow
TTITLE7=You Can Go
TTITLE8=I See It Coming
TTITLE9=Standing Still
EXTD=
EXTT0=
EXTT1=
EXTT2=
EXTT3=
EXTT4=
EXTT5=
EXTT6=
EXTT7=
EXTT8=
EXTT9=
PLAYORDER=
